HIERARCHY
ROOT RootJoint
{
    OFFSET   0.000000   0.000000   0.000000
    CHANNELS 6 Xposition Yposition Zposition Xrotation Yrotation Zrotation
    JOINT pelvis_lowerback
    {
        OFFSET   0.000000   0.093605   0.000000
        CHANNELS 3 Xrotation Yrotation Zrotation
        JOINT lowerback_torso
        {
            OFFSET   0.000000   0.100000   0.000000
            CHANNELS 3 Xrotation Yrotation Zrotation
            JOINT torso_head
            {
                OFFSET   0.000000   0.282350   0.000000
                CHANNELS 3 Xrotation Yrotation Zrotation
                End Site
                {
                    OFFSET   0.000000   0.192650   0.000000
                }
            }
            JOINT rTorso_Clavicle
            {
                OFFSET  -0.001000   0.157500   0.000000
                CHANNELS 3 Xrotation Yrotation Zrotation
                JOINT rShoulder
                {
                    OFFSET  -0.117647   0.000000   0.000000
                    CHANNELS 3 Xrotation Yrotation Zrotation
                    JOINT rElbow
                    {
                        OFFSET  -0.245000   0.000000   0.000000
                        CHANNELS 3 Xrotation Yrotation Zrotation
                        JOINT rWrist
                        {
                            OFFSET  -0.240000   0.000000   0.000000
                            CHANNELS 3 Xrotation Yrotation Zrotation
                            End Site
                            {
                                OFFSET  -0.116353  -0.002500   0.000000
                            }
                        }
                    }
                }
            }
            JOINT lTorso_Clavicle
            {
                OFFSET   0.001000   0.157500   0.000000
                CHANNELS 3 Xrotation Yrotation Zrotation
                JOINT lShoulder
                {
                    OFFSET   0.117647   0.000000   0.000000
                    CHANNELS 3 Xrotation Yrotation Zrotation
                    JOINT lElbow
                    {
                        OFFSET   0.245000   0.000000   0.000000
                        CHANNELS 3 Xrotation Yrotation Zrotation
                        JOINT lWrist
                        {
                            OFFSET   0.240000   0.000000   0.000000
                            CHANNELS 3 Xrotation Yrotation Zrotation
                            End Site
                            {
                                OFFSET   0.116353  -0.002500   0.000000
                            }
                        }
                    }
                }
            }
        }
    }
    JOINT rHip
    {
        OFFSET  -0.100000  -0.051395   0.000000
        CHANNELS 3 Xrotation Yrotation Zrotation
        JOINT rKnee
        {
            OFFSET   0.000000  -0.410000   0.000000
            CHANNELS 3 Xrotation Yrotation Zrotation
            JOINT rAnkle
            {
                OFFSET   0.000000  -0.390000   0.000000
                CHANNELS 3 Xrotation Yrotation Zrotation
                JOINT rToeJoint
                {
                    OFFSET   0.000000  -0.050000   0.130000
                    CHANNELS 3 Xrotation Yrotation Zrotation
                    End Site
                    {
                        OFFSET  -0.010000   0.002000   0.060000
                    }
                }
            }
        }
    }
    JOINT lHip
    {
        OFFSET   0.100000  -0.051395   0.000000
        CHANNELS 3 Xrotation Yrotation Zrotation
        JOINT lKnee
        {
            OFFSET   0.000000  -0.410000   0.000000
            CHANNELS 3 Xrotation Yrotation Zrotation
            JOINT lAnkle
            {
                OFFSET   0.000000  -0.390000   0.000000
                CHANNELS 3 Xrotation Yrotation Zrotation
                JOINT lToeJoint
                {
                    OFFSET   0.000000  -0.050000   0.130000
                    CHANNELS 3 Xrotation Yrotation Zrotation
                    End Site
                    {
                        OFFSET   0.010000   0.002000   0.060000
                    }
                }
            }
        }
    }
}
MOTION
Frames: 10
Frame Time:   0.008333
 -2.308564   0.897399   4.072420   3.273076  -9.665016   2.238477   3.509114   0.504606   0.114870  -2.844704  -0.492057  -0.441989  -2.408285   0.945558  -0.642748   1.331988 -14.908173  -2.152547   2.633505  -4.046394  60.386832  -0.071548  35.460616   0.041029  -2.838203   1.649657  -6.803735   4.509036  13.270342   0.183257   2.545522   0.929852 -62.474298  -0.015792 -33.877442  -0.007620  -5.311378  -2.647991   6.279938 -13.961533  -0.126820  -4.441774  35.652800  -0.006591  -0.008843 -13.560308  -3.883901   4.355266 -24.694402  -0.022240   0.035788 -15.618418   0.638459   2.151702  42.491519   0.001743  -0.007439  -7.056414   7.539519  -0.781397 -23.711018   0.023766  -0.030582
 -2.307695   0.897543   4.073206   3.146522  -9.717233   1.802411   3.514963   0.559909   0.290522  -2.823067  -0.496986  -0.158446  -2.323208   0.849377  -0.685473   1.344299 -14.702612  -1.492495   2.789440  -4.017350  60.423848  -0.059717  35.133696   0.033720  -2.909400   1.016075  -5.942991   4.542630  13.073698  -0.249793   2.522121   0.928565 -62.408831  -0.013875 -33.535856  -0.006639  -5.347354  -2.201473   5.557997 -14.067622  -0.365944  -4.130879  36.073116  -0.005465  -0.007848 -13.105865  -3.652367   4.249125 -22.766306  -0.013910   0.029720 -15.482643   0.619270   2.536905  42.436374   0.001377  -0.005957  -4.954717   7.573583  -1.082847 -34.489765   0.021625  -0.030659
 -2.306514   0.900682   4.074114   3.034024  -9.709241   1.673244   3.479935   0.580957   0.171147  -2.812404  -0.539665   0.007103  -2.245238   0.757127  -0.736681   1.335089 -14.533614  -1.041226   2.911037  -4.000807  60.376814  -0.048775  34.862535   0.027397  -2.959690   0.561509  -5.206937   4.531361  12.887113  -0.395124   2.455915   0.940051 -62.184739  -0.011239 -33.236731  -0.005571  -5.375137  -1.824069   5.015871 -13.958485  -0.540313  -4.162406  35.853981  -0.004402  -0.005934 -11.570059  -3.418595   4.268333 -23.853783  -0.012998   0.023395 -15.541193   0.633609   2.604129  42.429467   0.001096  -0.004767  -3.183101   7.478819  -1.446656 -37.451957   0.013655  -0.026072
 -2.305167   0.904962   4.075162   2.956369  -9.734373   1.590658   3.374069   0.609843   0.020243  -2.797556  -0.576736   0.118015  -2.178244   0.672000  -0.795516   1.307369 -14.386606  -0.854857   2.998631  -3.993448  60.225235  -0.038955  34.640829   0.022010  -2.989659   0.279807  -4.642551   4.504266  12.734769  -0.294777   2.374884   0.964339 -61.863614  -0.008398 -32.985067  -0.004528  -5.387721  -1.596995   4.668137 -13.753634  -0.659119  -4.236324  35.286665  -0.003733  -0.003898  -9.559487  -3.173116   4.340141 -25.514085  -0.012658   0.018237 -15.551242   0.669755   2.614337  42.186673   0.000742  -0.003776  -0.826697   7.340117  -1.715488 -40.811065   0.008821  -0.019315
 -2.303699   0.909748   4.076205   2.905195  -9.803995   1.572712   3.245821   0.641991  -0.191477  -2.787797  -0.606642   0.181957  -2.123227   0.593111  -0.854676   1.257823 -14.250789  -0.849701   3.050233  -3.993696  59.984940  -0.030528  34.454528   0.017503  -3.005850   0.127932  -4.275934   4.461511  12.605597  -0.026621   2.279150   1.001044 -61.455048  -0.005779 -32.764924  -0.003641  -5.390655  -1.479374   4.526619 -13.512259  -0.773319  -4.374060  34.529460  -0.003215  -0.001653  -7.340837  -2.956925   4.463482 -27.438816  -0.012283   0.015851 -15.575379   0.720866   2.557525  41.894204   0.000464  -0.002856   1.474171   7.187060  -1.959886 -42.608186   0.005396  -0.013938
 -2.302155   0.914664   4.077202   2.868207  -9.966180   1.603187   3.115314   0.691813  -0.447719  -2.776387  -0.618148   0.204443  -2.075847   0.520406  -0.914464   1.187275 -14.117479  -0.972522   3.068571  -3.996624  59.681157  -0.023506  34.296601   0.013764  -3.012933   0.073588  -4.075923   4.410840  12.497120   0.350750   2.176504   1.047911 -60.988323  -0.003570 -32.567659  -0.002965  -5.388214  -1.430198   4.556811 -13.264782  -0.908887  -4.548911  33.680521  -0.002470   0.001120  -5.055007  -2.781674   4.637532 -29.468453  -0.011771   0.017350 -15.605468   0.784769   2.457189  41.594958   0.000342  -0.001902   3.690938   7.021996  -2.182685 -43.383649   0.003383  -0.009872
 -2.300580   0.919508   4.078137   2.835977 -10.179986   1.654691   2.992274   0.739627  -0.723343  -2.760291  -0.624371   0.197662  -2.033334   0.452325  -0.973858   1.103460 -13.988837  -1.181679   3.063008  -4.002261  59.334666  -0.017782  34.160065   0.010703  -3.014524   0.087711  -4.010159   4.354880  12.401969   0.791436   2.069816   1.099779 -60.490830  -0.001814 -32.388627  -0.002470  -5.382084  -1.422880   4.710338 -13.020770  -1.016402  -4.729506  32.801605  -0.001823   0.003593  -2.792959  -2.589481   4.813706 -31.394771  -0.011055   0.018645 -15.643018   0.846827   2.338485  41.306733   0.000310  -0.001025   5.808947   6.849579  -2.384683 -43.510535   0.002559  -0.007613
 -2.299301   0.924491   4.079101   2.895746 -10.485879   1.357180   2.884100   0.714678  -0.460707  -2.959004  -0.596440   0.122074  -1.769290   0.322916  -1.118976   1.055100 -14.033015  -1.699566   2.528448  -4.441516  58.595273  -0.017800  34.361338   0.011083  -3.017490  -0.181846  -3.169273   4.532236  12.426531   1.360800   1.697470   1.444968 -59.640231  -0.004753 -32.642431  -0.002702  -5.386363  -1.113187   4.213533 -13.115018  -1.215982  -4.520393  32.615601  -0.001308   0.003599  -1.214622  -2.242612   5.091327 -28.802670  -0.011497   0.007493 -15.172240   0.816037   2.663967  39.818147   0.002085   0.002219   9.034706   6.443683  -2.942787 -50.415975  -0.024925   0.009740
 -2.298228   0.931052   4.079742   2.991380 -10.605884   1.203055   2.810669   0.576790  -0.307618  -3.189294  -0.647547   0.021466  -1.520219   0.192796  -1.253582   0.948804 -14.081283  -2.346007   1.952842  -4.863437  57.719597  -0.018409  34.567152   0.011526  -3.027212  -0.298156  -2.727388   4.625423  12.423785   2.075267   1.269610   1.768394 -58.648142  -0.007725 -32.895963  -0.002945  -5.380946  -0.948453   4.020846 -13.268960  -1.409656  -4.441806  32.517204  -0.001006   0.003131   0.265583  -1.906835   5.346838 -26.342139  -0.012985   0.002287 -14.813019   0.780091   2.863631  38.483262   0.002662   0.002942  11.091472   5.948775  -3.599934 -49.333098  -0.013530   0.008153
 -2.297405   0.938599   4.080208   3.099523 -10.637694   0.996328   2.739938   0.416949  -0.086266  -3.398375  -0.728607  -0.054443  -1.287718   0.069175  -1.378373   0.821223 -14.122976  -3.130373   1.373391  -5.257248  56.773418  -0.019183  34.774036   0.011776  -3.032836  -0.312169  -2.556768   4.666475  12.400774   2.892408   0.817348   2.056546 -57.627676  -0.010570 -33.154849  -0.003218  -5.365378  -0.918018   4.028541 -13.430868  -1.594878  -4.290289  32.445827  -0.000791   0.002619   1.645068  -1.586482   5.579116 -24.092487  -0.014422   0.000677 -14.449223   0.740388   3.128188  36.932826   0.002845   0.002491  13.644972   5.446453  -4.177997 -48.466759  -0.006623   0.006842
